<?xml version="1.0" encoding="utf-8"?>
<!-- Generator: Adobe Illustrator 18.1.0, SVG Export Plug-In . SVG Version: 6.00 Build 0)  -->
<!DOCTYPE svg PUBLIC "-//W3C//DTD SVG 1.1 Basic//EN" "http://www.w3.org/Graphics/SVG/1.1/DTD/svg11-basic.dtd">
<svg version="1.1" baseProfile="basic" id="Ebene_1"
	 xmlns="http://www.w3.org/2000/svg" xmlns:xlink="http://www.w3.org/1999/xlink" x="0px" y="0px" viewBox="0 0 283.5 56.7"
	 xml:space="preserve">
<rect x="22.5" y="16.6" fill="#A61916" width="8.7" height="34.1"/>
<rect x="33.4" y="11.6" fill="#DC5B45" width="8.7" height="39"/>
<rect x="44.2" y="5" fill="#582C7E" width="8.7" height="45.7"/>
<rect x="11.8" y="13.1" fill="#2C468C" width="8.7" height="37.6"/>
<rect x="1" y="21.5" fill="#88AA2F" width="8.7" height="29.1"/>
<rect x="1" y="23" opacity="0.4" fill="#FFFFFF" width="8.7" height="9.7"/>
<rect x="11.8" y="14.5" opacity="0.4" fill="#FFFFFF" width="8.7" height="10.7"/>
<rect x="22.5" y="18" opacity="0.4" fill="#FFFFFF" width="8.7" height="11.3"/>
<rect x="33.4" y="13.1" opacity="0.4" fill="#FFFFFF" width="8.7" height="11.5"/>
<rect x="44.2" y="6.4" opacity="0.4" fill="#FFFFFF" width="8.7" height="14.1"/>
<path fill="#ffffff" d="M61.5,19.7c1.9-0.3,5.6-0.6,9.1-0.6c4.3,0,6.9,0.4,9.3,1.8c2.2,1.2,3.7,3.3,3.7,6.2c0,2.7-1.6,5.3-5.1,6.6
	v0.1c3.6,0.9,6.2,3.7,6.2,7.6c0,2.9-1.3,5.1-3.2,6.7c-2.3,1.8-6.1,2.8-12.3,2.8c-3.5,0-6.1-0.2-7.6-0.5V19.7z M68.5,31.6h2.3
	c3.7,0,5.7-1.5,5.7-3.8c0-2.4-1.8-3.6-5-3.6c-1.6,0-2.5,0.1-3,0.2V31.6z M68.5,45.4c0.7,0.1,1.5,0.1,2.7,0.1c3.2,0,6-1.2,6-4.5
	c0-3.1-2.8-4.3-6.3-4.3h-2.4V45.4z"/>
<path fill="#ffffff" d="M111.8,38.9c0,8.3-5.9,12.1-11.9,12.1c-6.6,0-11.7-4.3-11.7-11.7c0-7.4,4.8-12,12.1-12
	C107.2,27.3,111.8,32,111.8,38.9z M95.5,39.1c0,3.9,1.6,6.8,4.6,6.8c2.8,0,4.5-2.7,4.5-6.8c0-3.3-1.3-6.8-4.5-6.8
	C96.8,32.3,95.5,35.8,95.5,39.1z"/>
<path fill="#ffffff" d="M138.7,38.9c0,8.3-5.9,12.1-11.9,12.1c-6.6,0-11.7-4.3-11.7-11.7c0-7.4,4.8-12,12.1-12
	C134,27.3,138.7,32,138.7,38.9z M122.3,39.1c0,3.9,1.6,6.8,4.6,6.8c2.8,0,4.5-2.7,4.5-6.8c0-3.3-1.3-6.8-4.5-6.8
	C123.6,32.3,122.3,35.8,122.3,39.1z"/>
<path fill="#ffffff" d="M150.1,37.3L150.1,37.3c0.6-1,1.2-1.9,1.7-2.7l4.6-6.8h8.5l-8.1,9.2l9.3,13.5h-8.7l-5.5-9.3l-1.8,2.2v7.1h-7
	V17.6h7V37.3z"/>
<path fill="#ffffff" d="M168.5,35.1c0-2.2-0.1-4-0.2-5.7h3.4l0.2,3.4h0.1c1.2-2,3.1-3.9,6.7-3.9c2.8,0,5,1.7,5.9,4.2h0.1
	c0.7-1.2,1.5-2.1,2.4-2.7c1.3-1,2.6-1.5,4.6-1.5c2.8,0,7,1.8,7,9.1v12.4h-3.7V38.6c0-4.1-1.5-6.5-4.6-6.5c-2.2,0-3.9,1.6-4.6,3.4
	c-0.2,0.6-0.3,1.2-0.3,1.9v13h-3.7V37.8c0-3.4-1.5-5.7-4.4-5.7c-2.4,0-4.1,1.9-4.7,3.8c-0.2,0.5-0.3,1.2-0.3,1.9v12.7h-3.7V35.1z"/>
<path fill="#ffffff" d="M206.9,40.6c0.1,5.2,3.4,7.3,7.2,7.3c2.7,0,4.4-0.5,5.8-1.1l0.7,2.7c-1.3,0.6-3.7,1.3-7.1,1.3
	c-6.5,0-10.4-4.3-10.4-10.7s3.7-11.3,9.9-11.3c6.9,0,8.7,6,8.7,9.9c0,0.8,0,1.3-0.1,1.8H206.9z M218.2,37.9c0-2.4-1-6.2-5.3-6.2
	c-3.9,0-5.6,3.5-5.9,6.2H218.2z"/>
<path fill="#ffffff" d="M231.2,24.3v5.1h5.5v2.9h-5.5v11.4c0,2.6,0.7,4.1,2.9,4.1c1,0,1.7-0.1,2.2-0.3l0.2,2.9
	c-0.7,0.3-1.9,0.5-3.4,0.5c-1.8,0-3.2-0.6-4.1-1.6c-1-1.2-1.5-3-1.5-5.5V32.3h-3.3v-2.9h3.3v-3.9L231.2,24.3z"/>
<path fill="#ffffff" d="M241,35.9c0-2.5,0-4.6-0.2-6.6h3.4l0.2,4.2h0.1c1-2.8,3.3-4.6,5.9-4.6c0.4,0,0.7,0,1,0.1v3.6
	c-0.4-0.1-0.8-0.1-1.3-0.1c-2.7,0-4.6,2-5.1,4.9c-0.1,0.5-0.1,1.2-0.1,1.8v11.2H241V35.9z"/>
<path fill="#ffffff" d="M259.7,23.4c0,1.3-0.9,2.4-2.4,2.4c-1.4,0-2.3-1-2.3-2.4c0-1.3,1-2.4,2.4-2.4
	C258.7,21,259.7,22.1,259.7,23.4z M255.4,50.4V29.4h3.8v21.1H255.4z"/>
<path fill="#ffffff" d="M267.4,29.4l3,4.5c0.8,1.2,1.5,2.2,2.2,3.4h0.1c0.7-1.2,1.4-2.3,2.1-3.4l2.9-4.5h4.2l-7.2,10.2l7.4,10.9
	h-4.3l-3.1-4.7c-0.8-1.2-1.5-2.4-2.3-3.7h-0.1c-0.7,1.3-1.4,2.4-2.2,3.7l-3,4.7h-4.2l7.5-10.8l-7.1-10.3H267.4z"/>
</svg>
